<svg id="visual" viewBox="0 0 900 450" width="900" height="450" xmlns="http://www.w3.org/2000/svg" xmlns:xlink="http://www.w3.org/1999/xlink" version="1.1"><rect x="0" y="0" width="900" height="450" fill="#e3e3e3"></rect><defs><linearGradient id="grad1_0" x1="50%" y1="0%" x2="100%" y2="100%"><stop offset="10%" stop-color="#e3e3e3" stop-opacity="1"></stop><stop offset="90%" stop-color="#e3e3e3" stop-opacity="1"></stop></linearGradient></defs><defs><linearGradient id="grad2_0" x1="0%" y1="0%" x2="50%" y2="100%"><stop offset="10%" stop-color="#e3e3e3" stop-opacity="1"></stop><stop offset="90%" stop-color="#e3e3e3" stop-opacity="1"></stop></linearGradient></defs><g transform="translate(900, 0)"><path d="M0 315C-33.4 290.8 -66.8 266.5 -105.2 254.1C-143.7 241.6 -187.3 240.9 -220.6 220.6C-253.9 200.4 -277 160.6 -291 120.5C-305 80.5 -310 40.3 -315 0L0 0Z" fill="#2236b5"></path></g><g transform="translate(0, 450)"><path d="M0 -315C36.7 -301.8 73.4 -288.6 114.4 -276.2C155.5 -263.9 201 -252.4 222.7 -222.7C244.5 -193.1 242.6 -145.4 254.1 -105.2C265.5 -65.1 290.2 -32.5 315 0L0 0Z" fill="#2236b5"></path></g></svg>